<svg version="1.1" id="Layer_1" xmlns="http://www.w3.org/2000/svg" xmlns:xlink="http://www.w3.org/1999/xlink" x="0px" y="0px"
	 width="100%" viewBox="0 0 980 544" enable-background="new 0 0 980 544" xml:space="preserve">
<path fill="#D9EAEF" opacity="1.000000" stroke="none" 
	d="
M563.000000,545.000000 
	C375.333344,545.000000 188.166672,545.000000 1.000000,545.000000 
	C1.000000,363.666656 1.000000,182.333328 1.000000,1.000000 
	C327.666656,1.000000 654.333313,1.000000 981.000000,1.000000 
	C981.000000,182.333328 981.000000,363.666656 981.000000,545.000000 
	C841.833313,545.000000 702.666687,545.000000 563.000000,545.000000 
M706.079224,279.465454 
	C695.176147,280.401581 687.518433,275.548492 684.426270,265.233337 
	C681.976501,257.061157 681.859375,248.783569 685.427307,240.822311 
	C689.624756,231.456390 698.827209,227.091232 708.491882,230.339966 
	C712.568909,231.710449 716.183411,234.457184 721.048889,237.155533 
	C719.986694,234.789078 719.615784,231.869919 718.290588,231.340851 
	C707.560547,227.057129 696.640503,225.500336 686.328125,232.433716 
	C676.270325,239.195892 672.743835,253.291367 677.648682,265.573669 
	C682.235596,277.059814 693.230835,282.762421 707.779785,280.822174 
	C710.653137,280.119873 713.530334,279.432617 716.398987,278.711609 
	C720.153687,277.767853 721.338257,275.520721 720.301758,272.732361 
	C715.777466,275.002258 711.354675,277.221191 706.079224,279.465454 
M640.976257,246.252411 
	C640.791077,243.778427 640.962463,241.212906 640.354980,238.847366 
	C638.409363,231.270966 635.907959,223.831619 634.115845,216.222839 
	C631.470154,204.990219 626.291016,194.852768 620.780029,184.927582 
	C617.119751,178.335464 612.302063,172.390533 608.069763,166.110565 
	C598.428345,151.804459 585.362732,141.190643 571.095154,131.917267 
	C565.960510,128.579926 560.710327,125.355324 555.251099,122.597488 
	C547.209534,118.535118 539.061584,114.617950 530.708679,111.262032 
	C525.796082,109.288315 520.363159,108.644737 515.234985,107.158737 
	C512.567383,106.385765 510.025635,104.110641 507.474426,104.183136 
	C494.530365,104.551018 481.787445,100.935684 468.731171,102.850899 
	C461.053009,103.977211 453.163086,103.645065 445.371338,104.028511 
	C444.242340,104.084068 443.114136,104.416656 442.012421,104.719055 
	C438.111755,105.789749 434.216583,106.881516 430.330872,108.005310 
	C425.028931,109.538666 419.483215,110.546501 414.503479,112.799522 
	C407.655090,115.898018 401.190308,119.866928 394.650940,123.619339 
	C388.797577,126.978104 382.871826,130.270462 377.346527,134.120880 
	C373.472382,136.820648 370.675201,141.302017 366.582947,143.399292 
	C359.822876,146.863846 355.186127,152.303299 350.706146,157.889206 
	C345.304108,164.624893 340.382263,171.772018 335.615173,178.980820 
	C332.722778,183.354691 330.516266,188.182129 327.152100,192.916382 
	C325.986908,192.899704 324.807068,192.997147 323.658661,192.849670 
	C294.993195,189.168762 266.522034,190.951950 238.145859,195.776154 
	C233.504303,196.565262 231.745590,199.329132 231.755737,203.795883 
	C231.808762,227.123810 231.789200,250.451889 231.847534,273.779816 
	C231.852081,275.596741 232.144257,277.435760 232.498917,279.225647 
	C238.121872,307.603424 253.683929,328.534912 279.050262,342.562836 
	C288.330109,347.694702 296.960571,348.960541 306.056427,342.926697 
	C307.005615,342.297058 308.020050,341.765839 309.025909,341.934814 
	C314.343140,351.781494 319.620697,361.649963 324.999298,371.463013 
	C326.871155,374.878113 328.393372,378.778046 331.102814,381.391144 
	C344.155548,393.979889 355.406616,408.566284 371.230286,418.129578 
	C378.345459,422.429810 385.223053,427.183807 392.594086,430.984009 
	C400.913696,435.273346 408.391144,441.703857 418.417145,442.137909 
	C419.165039,442.170288 419.855408,442.913208 420.625519,443.161072 
	C423.676849,444.143005 426.706451,445.249756 429.824829,445.951385 
	C433.657684,446.813782 437.588684,447.230530 441.443573,448.007416 
	C443.980560,448.518677 446.424500,449.529480 448.970734,449.947662 
	C452.061920,450.455261 455.235260,450.447388 458.339386,450.895447 
	C461.874298,451.405701 465.388245,452.791412 468.882690,452.700195 
	C476.273560,452.507355 483.787903,452.292023 490.989105,450.810181 
	C499.648132,449.028351 509.125763,452.365356 517.117310,446.547272 
	C517.942932,445.946198 519.361389,446.132050 520.510681,446.007324 
	C530.815125,444.889008 540.103577,440.776978 549.199524,436.169861 
	C555.603088,432.926392 561.954590,429.572235 568.239502,426.104736 
	C573.948181,422.955170 580.202148,420.352814 585.036438,416.152008 
	C594.815063,407.654663 603.915039,398.357117 613.049927,389.146576 
	C617.232849,384.929047 621.190857,380.386169 624.603455,375.535370 
	C628.083557,370.588623 630.767761,365.082153 633.802917,359.822174 
	C635.673096,356.581207 637.582886,353.362549 639.413635,350.099487 
	C643.740356,342.387604 648.775818,334.914703 648.540344,325.266449 
	C648.635437,323.926208 648.674255,322.579102 648.837830,321.247253 
	C649.132996,318.843658 649.502686,316.449158 650.633545,313.998840 
	C651.701965,312.964142 653.393372,312.096222 653.723145,310.863861 
	C654.757629,306.998474 655.279297,302.995850 656.923523,298.873016 
	C678.025757,298.873016 699.127991,298.873016 720.230225,298.873016 
	C720.229248,298.120605 720.228333,297.368225 720.227417,296.615814 
	C694.154968,296.615814 668.082458,296.615814 642.007751,295.687439 
	C641.689331,292.728790 643.099060,291.050323 646.584595,290.258728 
	C648.011047,290.163666 649.437500,290.068604 650.991638,289.965027 
	C648.553223,284.642273 648.362061,220.205475 650.679382,213.404388 
	C650.004944,213.313995 649.372620,213.174271 648.736755,213.155533 
	C647.437500,213.117264 646.136292,213.144058 645.499512,213.144058 
	C648.701416,226.439301 646.301819,239.677414 647.067932,252.810471 
	C646.591858,252.959015 646.115723,253.107544 645.639648,253.256073 
	C644.075806,251.222565 642.511963,249.189056 640.976257,246.252411 
M658.937866,280.463867 
	C662.297791,280.615082 665.657715,280.766296 667.579163,280.852753 
	C667.028015,262.996216 666.625793,245.732224 667.900635,228.433350 
	C665.357361,228.433350 662.291748,228.433350 659.412170,228.433350 
	C659.922852,230.906357 660.754639,233.123077 660.778320,235.348389 
	C660.912354,247.969467 660.943237,260.593842 660.773132,273.213898 
	C660.743835,275.387787 659.580933,277.546387 658.937866,280.463867 
M680.425476,324.443695 
	C681.273743,324.535553 682.777100,324.905029 682.873291,324.678101 
	C684.654602,320.475708 686.268005,316.202148 687.916870,311.943604 
	C687.639648,311.713043 687.362488,311.482483 687.085327,311.251953 
	C685.317566,313.256317 683.549866,315.260681 682.005798,317.011444 
	C679.936890,314.962189 678.093933,313.136780 676.251038,311.311340 
	C676.025635,311.582153 675.800232,311.852966 675.574829,312.123749 
	C677.155029,316.000153 678.735168,319.876587 680.425476,324.443695 
z"/>
<path fill="#DAEBF0" opacity="1.000000" stroke="none" 
	d="
M648.014160,325.426208 
	C648.775818,334.914703 643.740356,342.387604 639.413635,350.099487 
	C637.582886,353.362549 635.673096,356.581207 633.802917,359.822174 
	C630.767761,365.082153 628.083557,370.588623 624.603455,375.535370 
	C621.190857,380.386169 617.232849,384.929047 613.049927,389.146576 
	C603.915039,398.357117 594.815063,407.654663 585.036438,416.152008 
	C580.202148,420.352814 573.948181,422.955170 568.239502,426.104736 
	C561.954590,429.572235 555.603088,432.926392 549.199524,436.169861 
	C540.103577,440.776978 530.815125,444.889008 520.510681,446.007324 
	C519.361389,446.132050 517.942932,445.946198 517.117310,446.547272 
	C509.125763,452.365356 499.648132,449.028351 490.989105,450.810181 
	C483.787903,452.292023 476.273560,452.507355 468.882690,452.700195 
	C465.388245,452.791412 461.874298,451.405701 458.339386,450.895447 
	C455.235260,450.447388 452.061920,450.455261 448.970734,449.947662 
	C446.424500,449.529480 443.980560,448.518677 441.443573,448.007416 
	C437.588684,447.230530 433.657684,446.813782 429.824829,445.951385 
	C426.706451,445.249756 423.676849,444.143005 420.625519,443.161072 
	C419.855408,442.913208 419.165039,442.170288 418.417145,442.137909 
	C408.391144,441.703857 400.913696,435.273346 392.594086,430.984009 
	C385.223053,427.183807 378.345459,422.429810 371.230286,418.129578 
	C355.406616,408.566284 344.155548,393.979889 331.102814,381.391144 
	C328.393372,378.778046 326.871155,374.878113 324.999298,371.463013 
	C319.620697,361.649963 314.343140,351.781494 309.347839,341.384644 
	C313.382629,339.380371 316.668854,337.749237 319.513000,334.449402 
	C324.507812,328.654388 331.185974,324.266327 335.935913,318.313049 
	C347.086151,304.338074 353.939667,288.416443 354.072906,270.186035 
	C354.233307,248.243378 354.094055,226.297943 354.357056,204.356995 
	C354.418854,199.201416 352.354462,196.622498 347.501770,195.861145 
	C341.001953,194.841339 334.501678,193.824127 328.001617,192.805817 
	C330.516266,188.182129 332.722778,183.354691 335.615173,178.980820 
	C340.382263,171.772018 345.304108,164.624893 350.706146,157.889206 
	C355.186127,152.303299 359.822876,146.863846 366.582947,143.399292 
	C370.675201,141.302017 373.472382,136.820648 377.346527,134.120880 
	C382.871826,130.270462 388.797577,126.978104 394.650940,123.619339 
	C401.190308,119.866928 407.655090,115.898018 414.503479,112.799522 
	C419.483215,110.546501 425.028931,109.538666 430.330872,108.005310 
	C434.216583,106.881516 438.111755,105.789749 442.012421,104.719055 
	C443.114136,104.416656 444.242340,104.084068 445.371338,104.028511 
	C453.163086,103.645065 461.053009,103.977211 468.731171,102.850899 
	C481.787445,100.935684 494.530365,104.551018 507.474426,104.183136 
	C510.025635,104.110641 512.567383,106.385765 515.234985,107.158737 
	C520.363159,108.644737 525.796082,109.288315 530.708679,111.262032 
	C539.061584,114.617950 547.209534,118.535118 555.251099,122.597488 
	C560.710327,125.355324 565.960510,128.579926 571.095154,131.917267 
	C585.362732,141.190643 598.428345,151.804459 608.069763,166.110565 
	C612.302063,172.390533 617.119751,178.335464 620.780029,184.927582 
	C626.291016,194.852768 631.470154,204.990219 634.115845,216.222839 
	C635.907959,223.831619 638.409363,231.270966 640.354980,238.847366 
	C640.962463,241.212906 640.791077,243.778427 640.656250,246.549561 
	C631.918335,237.037308 623.162537,227.490234 615.245178,217.292297 
	C611.976746,213.082397 608.774902,212.597992 605.154419,213.360413 
	C605.746094,217.138214 606.283386,220.568878 606.450073,224.127808 
	C605.719604,225.792938 605.088806,227.321671 605.042480,228.867905 
	C604.636963,242.411560 604.076111,255.959335 604.126953,269.503754 
	C604.148438,275.216797 605.524597,280.924744 606.235107,286.978973 
	C605.739868,288.079620 605.294495,288.836365 604.670776,289.896149 
	C607.038818,289.896149 608.890747,289.896149 610.895691,289.896149 
	C608.779175,285.670166 608.100830,227.426575 610.038086,222.021713 
	C621.996765,235.807938 633.900757,249.461212 645.668823,263.230743 
	C646.611023,264.333099 647.030273,266.249786 646.984741,267.766846 
	C646.758240,275.319611 646.294739,282.865295 645.914734,290.413452 
	C643.099060,291.050323 641.689331,292.728790 641.542786,296.215637 
	C637.249695,296.752075 633.421509,296.751160 629.593445,296.770203 
	C617.546814,296.830139 605.498474,297.026794 593.455017,296.861694 
	C590.793274,296.825226 587.483276,296.288025 585.610413,294.666321 
	C576.920288,287.141541 568.684631,279.357483 569.744629,266.059021 
	C570.443359,257.293243 569.797302,248.425537 569.913757,239.605606 
	C569.963684,235.821808 570.420776,232.043396 570.708435,228.045868 
	C569.120056,228.149323 567.285400,228.268829 565.649719,228.375366 
	C566.454285,231.161621 567.576416,233.295700 567.606567,235.445129 
	C567.767761,246.925415 567.656128,258.409515 567.488342,269.873535 
	C567.337830,269.854767 567.054443,269.963196 566.744202,269.821960 
	C558.455322,257.516724 550.482361,245.349060 542.495667,233.190353 
	C538.755066,227.495804 538.743103,227.503647 531.832764,228.639313 
	C534.823792,233.658829 535.260803,274.105011 532.309631,280.669586 
	C534.333313,280.669586 536.273193,280.669586 537.246155,280.669586 
	C535.367126,266.736938 536.723999,252.948593 536.978394,239.114471 
	C550.878784,258.010345 561.516235,278.799683 578.580933,296.307953 
	C541.018555,296.307953 504.573120,296.307953 467.492279,296.307953 
	C468.358826,295.130096 468.829468,294.317139 469.460846,293.658173 
	C478.636108,284.082611 483.040588,272.682220 483.565460,259.419403 
	C484.441040,237.295639 472.125366,219.246735 450.904388,215.498764 
	C437.803406,213.184921 424.163788,213.918747 410.764343,213.322479 
	C410.634766,213.316711 410.482025,213.831284 410.986328,212.866104 
	C413.029297,215.830582 415.961273,218.164062 416.136963,220.689301 
	C416.736725,229.310669 416.504578,238.003723 416.238159,246.658600 
	C416.190948,248.192612 414.718658,249.952911 413.455658,251.125122 
	C410.500122,253.868134 406.424713,255.761963 404.309753,258.987701 
	C397.302826,269.674835 396.299164,280.856018 403.690552,292.028748 
	C404.608582,293.416443 405.173492,295.037750 405.988739,296.730927 
	C403.040710,296.951447 400.638031,297.131165 398.235321,297.310883 
	C398.186401,297.904694 398.137482,298.498505 398.088562,299.092285 
	C405.026489,297.722778 410.862579,299.857300 416.732544,303.012909 
	C427.555908,308.831268 439.718445,309.017517 450.248383,304.177551 
	C462.372864,298.604736 474.512115,298.849579 486.988403,298.837891 
	C517.642395,298.809113 548.296387,298.823608 578.950378,298.831726 
	C586.813538,298.833801 594.676636,298.878601 602.539795,298.900513 
	C620.359741,298.950226 638.179749,298.997894 655.999634,299.046417 
	C655.279297,302.995850 654.757629,306.998474 653.723145,310.863861 
	C653.393372,312.096222 651.701965,312.964142 649.908020,313.842773 
	C646.372131,312.930023 643.561768,312.173309 640.058899,311.230133 
	C640.058899,315.929626 639.878174,319.373383 640.177795,322.774811 
	C640.259277,323.699707 641.789062,324.496979 642.845032,325.668091 
	C644.024597,325.645386 645.013306,325.307495 646.255188,325.020630 
	C647.010315,325.189850 647.512268,325.308044 648.014160,325.426208 
M504.589172,230.042023 
	C510.905731,230.295975 517.222290,230.549927 524.091614,230.826096 
	C523.027527,230.025162 521.772034,228.264053 520.478333,228.235565 
	C510.143219,228.008057 499.800934,228.108536 490.889435,228.108536 
	C492.871277,246.015106 491.928741,263.249542 491.529572,280.890900 
	C501.599030,280.890900 512.696655,280.980103 523.788147,280.759186 
	C524.956177,280.735901 526.087769,278.886047 527.124023,277.981537 
	C517.242615,277.981537 508.123962,277.981537 499.156189,277.981537 
	C499.156189,262.357422 499.156189,246.441208 499.156189,230.256348 
	C500.690826,230.182571 502.152466,230.112305 504.589172,230.042023 
M476.306915,320.409912 
	C476.537079,322.309875 476.767242,324.209869 476.997406,326.109833 
	C477.557098,326.039581 478.116760,325.969360 478.676453,325.899109 
	C478.931824,323.575928 479.187164,321.252716 479.482178,318.569061 
	C482.690460,320.955597 485.459015,323.015015 488.733063,325.450439 
	C488.733063,320.508484 488.733063,316.336761 488.733063,312.165070 
	C488.226807,312.027069 487.720581,311.889099 487.214325,311.751099 
	C486.592041,313.791473 485.969757,315.831818 485.191040,318.385101 
	C482.284241,316.221680 479.627258,314.244232 476.307953,311.773834 
	C476.307953,314.958588 476.307953,317.237183 476.306915,320.409912 
M408.823700,313.352722 
	C405.386169,312.734406 401.948608,312.116089 398.284973,311.457092 
	C398.284973,316.599121 398.284973,320.663208 398.284973,324.919708 
	C402.927124,324.814850 408.089233,326.690948 410.503967,321.508270 
	C411.406128,319.571960 409.829193,316.480560 408.823700,313.352722 
M581.016357,323.424286 
	C583.943054,318.153107 579.038269,317.591339 576.112976,315.830719 
	C577.581726,314.886719 578.811523,314.096313 580.319702,313.127014 
	C577.473877,310.889191 575.049927,310.933807 573.567322,313.525879 
	C570.992371,318.027588 575.683899,319.046875 578.613403,321.332642 
	C576.229126,321.866577 574.618347,322.227295 572.303284,322.745758 
	C575.158630,326.525421 577.757446,325.875427 581.016357,323.424286 
M444.379181,325.183258 
	C445.631744,324.996033 446.884308,324.808807 448.136871,324.621582 
	C448.107666,324.291992 448.078461,323.962372 448.049225,323.632751 
	C446.255646,322.950226 444.462036,322.267670 442.049286,321.349548 
	C444.740143,320.028931 446.412903,319.208008 449.276520,317.802643 
	C446.140625,317.120483 444.539337,316.772156 442.541351,316.337555 
	C444.424225,315.033630 445.812103,314.072510 448.314789,312.339386 
	C444.525482,312.339386 442.339752,312.339386 439.896057,312.339386 
	C439.896057,315.819153 440.059509,318.956604 439.848297,322.068634 
	C439.652252,324.956726 441.148224,325.425842 444.379181,325.183258 
M523.016663,319.601440 
	C523.984680,317.125610 524.952637,314.649811 525.732300,312.655731 
	C523.488342,312.655731 520.304626,312.655731 518.126831,312.655731 
	C518.821899,315.924927 519.369019,318.663055 519.995605,321.382874 
	C520.362244,322.974304 520.855713,324.536469 521.292114,326.111786 
	C521.866943,325.996399 522.441772,325.880981 523.016602,325.765564 
	C523.016602,324.007690 523.016602,322.249817 523.016663,319.601440 
M603.483337,313.953949 
	C609.736145,315.683563 605.468323,321.563721 608.424316,326.162628 
	C609.844360,320.924194 611.005981,316.639282 612.360168,311.643921 
	C609.754944,312.076874 606.430664,312.629272 603.483337,313.953949 
M548.540955,316.564575 
	C548.602966,319.400085 548.665039,322.235596 548.727051,325.071106 
	C549.366943,325.036407 550.006836,325.001709 550.646729,324.967041 
	C550.646729,320.646240 550.646729,316.325439 550.646729,312.004639 
	C550.177368,311.951141 549.707947,311.897644 549.238586,311.844147 
	C549.006409,313.093933 548.774231,314.343689 548.540955,316.564575 
z"/>
<path fill="#117C9D" opacity="1.000000" stroke="none" 
	d="
M567.638916,269.892303 
	C567.656128,258.409515 567.767761,246.925415 567.606567,235.445129 
	C567.576416,233.295700 566.454285,231.161621 565.649719,228.375366 
	C567.285400,228.268829 569.120056,228.149323 570.708435,228.045868 
	C570.420776,232.043396 569.963684,235.821808 569.913757,239.605606 
	C569.797302,248.425537 570.443359,257.293243 569.744629,266.059021 
	C568.684631,279.357483 576.920288,287.141541 585.610413,294.666321 
	C587.483276,296.288025 590.793274,296.825226 593.455017,296.861694 
	C605.498474,297.026794 617.546814,296.830139 629.593445,296.770203 
	C633.421509,296.751160 637.249695,296.752075 641.543945,296.679840 
	C668.082458,296.615814 694.154968,296.615814 720.227417,296.615814 
	C720.228333,297.368225 720.229248,298.120605 720.230225,298.873016 
	C699.127991,298.873016 678.025757,298.873016 656.461609,298.959717 
	C638.179749,298.997894 620.359741,298.950226 602.539795,298.900513 
	C594.676636,298.878601 586.813538,298.833801 578.950378,298.831726 
	C548.296387,298.823608 517.642395,298.809113 486.988403,298.837891 
	C474.512115,298.849579 462.372864,298.604736 450.248383,304.177551 
	C439.718445,309.017517 427.555908,308.831268 416.732544,303.012909 
	C410.862579,299.857300 405.026489,297.722778 398.088562,299.092285 
	C398.137482,298.498505 398.186401,297.904694 398.235321,297.310883 
	C400.638031,297.131165 403.040710,296.951447 405.988739,296.730927 
	C405.173492,295.037750 404.608582,293.416443 403.690552,292.028748 
	C396.299164,280.856018 397.302826,269.674835 404.309753,258.987701 
	C406.424713,255.761963 410.500122,253.868134 413.455658,251.125122 
	C414.718658,249.952911 416.190948,248.192612 416.238159,246.658600 
	C416.504578,238.003723 416.736725,229.310669 416.136963,220.689301 
	C415.961273,218.164062 413.029297,215.830582 410.986328,212.866104 
	C410.482025,213.831284 410.634766,213.316711 410.764343,213.322479 
	C424.163788,213.918747 437.803406,213.184921 450.904388,215.498764 
	C472.125366,219.246735 484.441040,237.295639 483.565460,259.419403 
	C483.040588,272.682220 478.636108,284.082611 469.460846,293.658173 
	C468.829468,294.317139 468.358826,295.130096 467.492279,296.307953 
	C504.573120,296.307953 541.018555,296.307953 578.580933,296.307953 
	C561.516235,278.799683 550.878784,258.010345 536.978394,239.114471 
	C536.723999,252.948593 535.367126,266.736938 537.246155,280.669586 
	C536.273193,280.669586 534.333313,280.669586 532.309631,280.669586 
	C535.260803,274.105011 534.823792,233.658829 531.832764,228.639313 
	C538.743103,227.503647 538.755066,227.495804 542.495667,233.190353 
	C550.482361,245.349060 558.455322,257.516724 566.779907,270.043701 
	C567.296936,270.235199 567.467896,270.063751 567.638916,269.892303 
M416.375244,273.493225 
	C416.375244,268.076019 416.375244,262.658783 416.375244,255.545166 
	C413.095032,258.271790 410.644135,259.697968 409.014160,261.769958 
	C402.025787,270.653290 402.339539,283.692291 409.311127,292.900726 
	C411.512970,295.809052 414.012756,296.996613 417.762756,296.918945 
	C429.746643,296.670807 441.755127,296.457916 453.720947,296.984833 
	C459.575317,297.242615 463.189087,294.774994 466.169678,290.496826 
	C475.333038,277.344299 478.176025,262.618622 474.850494,247.214310 
	C469.160309,220.856552 447.584686,212.170090 423.324646,215.804321 
	C423.324646,226.749374 423.324646,237.674011 423.324646,248.570557 
	C439.412659,249.712662 446.804718,255.091660 448.811096,266.924561 
	C449.855621,273.084625 447.545319,279.196350 443.237518,280.901123 
	C447.013885,273.703644 446.392303,266.758728 441.512970,260.869965 
	C436.946930,255.359222 430.680603,253.009720 422.998749,254.584778 
	C423.249817,266.545074 422.619629,278.232819 423.407654,289.870605 
	C421.336456,289.870605 417.977661,289.870605 415.853516,289.870605 
	C416.034088,284.549225 416.204834,279.518158 416.375244,273.493225 
M435.507904,304.957245 
	C442.471008,304.680817 449.253571,303.772522 455.940033,299.247620 
	C442.486816,299.247620 429.938599,299.247620 416.122253,299.247620 
	C422.481384,303.561615 428.430176,304.626770 435.507904,304.957245 
z"/>
<path fill="#1B82A1" opacity="1.000000" stroke="none" 
	d="
M327.576843,192.861099 
	C334.501678,193.824127 341.001953,194.841339 347.501770,195.861145 
	C352.354462,196.622498 354.418854,199.201416 354.357056,204.356995 
	C354.094055,226.297943 354.233307,248.243378 354.072906,270.186035 
	C353.939667,288.416443 347.086151,304.338074 335.935913,318.313049 
	C331.185974,324.266327 324.507812,328.654388 319.513000,334.449402 
	C316.668854,337.749237 313.382629,339.380371 309.336975,341.011719 
	C308.020050,341.765839 307.005615,342.297058 306.056427,342.926697 
	C296.960571,348.960541 288.330109,347.694702 279.050262,342.562836 
	C253.683929,328.534912 238.121872,307.603424 232.498917,279.225647 
	C232.144257,277.435760 231.852081,275.596741 231.847534,273.779816 
	C231.789200,250.451889 231.808762,227.123810 231.755737,203.795883 
	C231.745590,199.329132 233.504303,196.565262 238.145859,195.776154 
	C266.522034,190.951950 294.993195,189.168762 323.658661,192.849670 
	C324.807068,192.997147 325.986908,192.899704 327.576843,192.861099 
M351.945801,272.350403 
	C351.992859,252.019073 352.050995,231.687744 352.082916,211.356400 
	C352.102814,198.687134 352.087708,198.669891 339.646576,196.738586 
	C306.272552,191.557800 272.965027,192.106644 239.675354,197.672836 
	C235.240707,198.414337 233.890533,200.497452 233.912018,204.691742 
	C234.029022,227.521942 233.985275,250.352951 234.007584,273.183685 
	C234.008560,274.181396 234.007599,275.198608 234.186981,276.173767 
	C240.113235,308.390045 257.548828,331.539276 288.232422,343.883575 
	C291.243652,345.095032 295.726929,344.992096 298.646729,343.622620 
	C305.835999,340.250580 313.030914,336.458588 319.298279,331.633606 
	C338.389832,316.935760 349.704285,297.583282 351.945801,272.350403 
z"/>
<path fill="#087799" opacity="1.000000" stroke="none" 
	d="
M646.249634,290.336090 
	C646.294739,282.865295 646.758240,275.319611 646.984741,267.766846 
	C647.030273,266.249786 646.611023,264.333099 645.668823,263.230743 
	C633.900757,249.461212 621.996765,235.807938 610.038086,222.021713 
	C608.100830,227.426575 608.779175,285.670166 610.895691,289.896149 
	C608.890747,289.896149 607.038818,289.896149 604.670776,289.896149 
	C605.294495,288.836365 605.739868,288.079620 606.490356,286.596558 
	C606.803833,265.246643 606.812256,244.623093 606.820679,223.999542 
	C606.283386,220.568878 605.746094,217.138214 605.154419,213.360413 
	C608.774902,212.597992 611.976746,213.082397 615.245178,217.292297 
	C623.162537,227.490234 631.918335,237.037308 640.642151,247.001114 
	C642.511963,249.189056 644.075806,251.222565 645.639648,253.256073 
	C646.115723,253.107544 646.591858,252.959015 647.067932,252.810471 
	C646.301819,239.677414 648.701416,226.439301 645.499512,213.144058 
	C646.136292,213.144058 647.437500,213.117264 648.736755,213.155533 
	C649.372620,213.174271 650.004944,213.313995 650.679382,213.404388 
	C648.362061,220.205475 648.553223,284.642273 650.991638,289.965027 
	C649.437500,290.068604 648.011047,290.163666 646.249634,290.336090 
z"/>
<path fill="#0B799B" opacity="1.000000" stroke="none" 
	d="
M706.977478,280.784851 
	C693.230835,282.762421 682.235596,277.059814 677.648682,265.573669 
	C672.743835,253.291367 676.270325,239.195892 686.328125,232.433716 
	C696.640503,225.500336 707.560547,227.057129 718.290588,231.340851 
	C719.615784,231.869919 719.986694,234.789078 721.048889,237.155533 
	C716.183411,234.457184 712.568909,231.710449 708.491882,230.339966 
	C698.827209,227.091232 689.624756,231.456390 685.427307,240.822311 
	C681.859375,248.783569 681.976501,257.061157 684.426270,265.233337 
	C687.518433,275.548492 695.176147,280.401581 706.508179,279.789673 
	C706.950562,280.337555 706.963989,280.561188 706.977478,280.784851 
z"/>
<path fill="#087799" opacity="1.000000" stroke="none" 
	d="
M658.939819,280.087952 
	C659.580933,277.546387 660.743835,275.387787 660.773132,273.213898 
	C660.943237,260.593842 660.912354,247.969467 660.778320,235.348389 
	C660.754639,233.123077 659.922852,230.906357 659.412170,228.433350 
	C662.291748,228.433350 665.357361,228.433350 667.900635,228.433350 
	C666.625793,245.732224 667.028015,262.996216 667.579163,280.852753 
	C665.657715,280.766296 662.297791,280.615082 658.939819,280.087952 
z"/>
<path fill="#117C9D" opacity="1.000000" stroke="none" 
	d="
M648.277222,325.346313 
	C647.512268,325.308044 647.010315,325.189850 646.119873,324.727844 
	C643.935486,322.261230 643.086731,323.146210 642.654114,325.352844 
	C641.789062,324.496979 640.259277,323.699707 640.177795,322.774811 
	C639.878174,319.373383 640.058899,315.929626 640.058899,311.230133 
	C643.561768,312.173309 646.372131,312.930023 649.511841,313.868774 
	C649.502686,316.449158 649.132996,318.843658 648.837830,321.247253 
	C648.674255,322.579102 648.635437,323.926208 648.277222,325.346313 
M643.035461,317.373230 
	C643.530945,318.358917 644.026428,319.344574 644.521912,320.330200 
	C645.549744,319.438568 647.281982,318.632812 647.404175,317.630768 
	C647.522522,316.660339 645.984985,315.488007 645.174683,314.404327 
	C644.462585,315.141754 643.750488,315.879181 643.035461,317.373230 
z"/>
<path fill="#137E9E" opacity="1.000000" stroke="none" 
	d="
M680.370422,324.098328 
	C678.735168,319.876587 677.155029,316.000153 675.574829,312.123749 
	C675.800232,311.852966 676.025635,311.582153 676.251038,311.311340 
	C678.093933,313.136780 679.936890,314.962189 682.005798,317.011444 
	C683.549866,315.260681 685.317566,313.256317 687.085327,311.251953 
	C687.362488,311.482483 687.639648,311.713043 687.916870,311.943604 
	C686.268005,316.202148 684.654602,320.475708 682.873291,324.678101 
	C682.777100,324.905029 681.273743,324.535553 680.370422,324.098328 
z"/>
<path fill="#1B82A1" opacity="1.000000" stroke="none" 
	d="
M707.378662,280.803528 
	C706.963989,280.561188 706.950562,280.337555 706.934448,279.777008 
	C711.354675,277.221191 715.777466,275.002258 720.301758,272.732361 
	C721.338257,275.520721 720.153687,277.767853 716.398987,278.711609 
	C713.530334,279.432617 710.653137,280.119873 707.378662,280.803528 
z"/>
<path fill="#137E9E" opacity="1.000000" stroke="none" 
	d="
M504.101654,230.042023 
	C502.152466,230.112305 500.690826,230.182571 499.156189,230.256348 
	C499.156189,246.441208 499.156189,262.357422 499.156189,277.981537 
	C508.123962,277.981537 517.242615,277.981537 527.124023,277.981537 
	C526.087769,278.886047 524.956177,280.735901 523.788147,280.759186 
	C512.696655,280.980103 501.599030,280.890900 491.529572,280.890900 
	C491.928741,263.249542 492.871277,246.015106 490.889435,228.108536 
	C499.800934,228.108536 510.143219,228.008057 520.478333,228.235565 
	C521.772034,228.264053 523.027527,230.025162 524.091614,230.826096 
	C517.222290,230.549927 510.905731,230.295975 504.101654,230.042023 
z"/>
<path fill="#D9EAEF" opacity="1.000000" stroke="none" 
	d="
M606.450073,224.127808 
	C606.812256,244.623093 606.803833,265.246643 606.540222,286.252625 
	C605.524597,280.924744 604.148438,275.216797 604.126953,269.503754 
	C604.076111,255.959335 604.636963,242.411560 605.042480,228.867905 
	C605.088806,227.321671 605.719604,225.792938 606.450073,224.127808 
z"/>
<path fill="#137E9E" opacity="1.000000" stroke="none" 
	d="
M476.307434,319.962830 
	C476.307953,317.237183 476.307953,314.958588 476.307953,311.773834 
	C479.627258,314.244232 482.284241,316.221680 485.191040,318.385101 
	C485.969757,315.831818 486.592041,313.791473 487.214325,311.751099 
	C487.720581,311.889099 488.226807,312.027069 488.733063,312.165070 
	C488.733063,316.336761 488.733063,320.508484 488.733063,325.450439 
	C485.459015,323.015015 482.690460,320.955597 479.482178,318.569061 
	C479.187164,321.252716 478.931824,323.575928 478.676453,325.899109 
	C478.116760,325.969360 477.557098,326.039581 476.997406,326.109833 
	C476.767242,324.209869 476.537079,322.309875 476.307434,319.962830 
z"/>
<path fill="#0B799B" opacity="1.000000" stroke="none" 
	d="
M409.103149,313.634277 
	C409.829193,316.480560 411.406128,319.571960 410.503967,321.508270 
	C408.089233,326.690948 402.927124,324.814850 398.284973,324.919708 
	C398.284973,320.663208 398.284973,316.599121 398.284973,311.457092 
	C401.948608,312.116089 405.386169,312.734406 409.103149,313.634277 
M407.536987,321.217224 
	C409.411011,316.118073 407.834869,314.167999 402.135712,314.749664 
	C402.135712,317.298798 402.135712,319.862762 402.135712,323.068695 
	C404.021088,322.555054 405.505554,322.150635 407.536987,321.217224 
z"/>
<path fill="#1B82A1" opacity="1.000000" stroke="none" 
	d="
M580.768372,323.706512 
	C577.757446,325.875427 575.158630,326.525421 572.303284,322.745758 
	C574.618347,322.227295 576.229126,321.866577 578.613403,321.332642 
	C575.683899,319.046875 570.992371,318.027588 573.567322,313.525879 
	C575.049927,310.933807 577.473877,310.889191 580.319702,313.127014 
	C578.811523,314.096313 577.581726,314.886719 576.112976,315.830719 
	C579.038269,317.591339 583.943054,318.153107 580.768372,323.706512 
z"/>
<path fill="#087799" opacity="1.000000" stroke="none" 
	d="
M443.916260,325.183228 
	C441.148224,325.425842 439.652252,324.956726 439.848297,322.068634 
	C440.059509,318.956604 439.896057,315.819153 439.896057,312.339386 
	C442.339752,312.339386 444.525482,312.339386 448.314789,312.339386 
	C445.812103,314.072510 444.424225,315.033630 442.541351,316.337555 
	C444.539337,316.772156 446.140625,317.120483 449.276520,317.802643 
	C446.412903,319.208008 444.740143,320.028931 442.049286,321.349548 
	C444.462036,322.267670 446.255646,322.950226 448.049225,323.632751 
	C448.078461,323.962372 448.107666,324.291992 448.136871,324.621582 
	C446.884308,324.808807 445.631744,324.996033 443.916260,325.183228 
z"/>
<path fill="#087799" opacity="1.000000" stroke="none" 
	d="
M523.016602,320.046692 
	C523.016602,322.249817 523.016602,324.007690 523.016602,325.765564 
	C522.441772,325.880981 521.866943,325.996399 521.292114,326.111786 
	C520.855713,324.536469 520.362244,322.974304 519.995605,321.382874 
	C519.369019,318.663055 518.821899,315.924927 518.126831,312.655731 
	C520.304626,312.655731 523.488342,312.655731 525.732300,312.655731 
	C524.952637,314.649811 523.984680,317.125610 523.016602,320.046692 
z"/>
<path fill="#0B799B" opacity="1.000000" stroke="none" 
	d="
M603.294922,313.567810 
	C606.430664,312.629272 609.754944,312.076874 612.360168,311.643921 
	C611.005981,316.639282 609.844360,320.924194 608.424316,326.162628 
	C605.468323,321.563721 609.736145,315.683563 603.294922,313.567810 
z"/>
<path fill="#087799" opacity="1.000000" stroke="none" 
	d="
M548.541504,316.079041 
	C548.774231,314.343689 549.006409,313.093933 549.238586,311.844147 
	C549.707947,311.897644 550.177368,311.951141 550.646729,312.004639 
	C550.646729,316.325439 550.646729,320.646240 550.646729,324.967041 
	C550.006836,325.001709 549.366943,325.036407 548.727051,325.071106 
	C548.665039,322.235596 548.602966,319.400085 548.541504,316.079041 
z"/>
<path fill="#D9EAEF" opacity="1.000000" stroke="none" 
	d="
M642.845032,325.668091 
	C643.086731,323.146210 643.935486,322.261230 645.866577,324.676788 
	C645.013306,325.307495 644.024597,325.645386 642.845032,325.668091 
z"/>
<path fill="#A5CEDA" opacity="1.000000" stroke="none" 
	d="
M567.488403,269.873535 
	C567.467896,270.063751 567.296936,270.235199 567.090210,270.184937 
	C567.054443,269.963196 567.337830,269.854767 567.488403,269.873535 
z"/>
<path fill="#D9EAEF" opacity="1.000000" stroke="none" 
	d="
M416.375397,273.990143 
	C416.204834,279.518158 416.034088,284.549225 415.853516,289.870605 
	C417.977661,289.870605 421.336456,289.870605 423.407654,289.870605 
	C422.619629,278.232819 423.249817,266.545074 422.998749,254.584778 
	C430.680603,253.009720 436.946930,255.359222 441.512970,260.869965 
	C446.392303,266.758728 447.013885,273.703644 443.237518,280.901123 
	C447.545319,279.196350 449.855621,273.084625 448.811096,266.924561 
	C446.804718,255.091660 439.412659,249.712662 423.324646,248.570557 
	C423.324646,237.674011 423.324646,226.749374 423.324646,215.804321 
	C447.584686,212.170090 469.160309,220.856552 474.850494,247.214310 
	C478.176025,262.618622 475.333038,277.344299 466.169678,290.496826 
	C463.189087,294.774994 459.575317,297.242615 453.720947,296.984833 
	C441.755127,296.457916 429.746643,296.670807 417.762756,296.918945 
	C414.012756,296.996613 411.512970,295.809052 409.311127,292.900726 
	C402.339539,283.692291 402.025787,270.653290 409.014160,261.769958 
	C410.644135,259.697968 413.095032,258.271790 416.375244,255.545166 
	C416.375244,262.658783 416.375244,268.076019 416.375397,273.990143 
z"/>
<path fill="#D7E9EE" opacity="1.000000" stroke="none" 
	d="
M435.056274,304.956726 
	C428.430176,304.626770 422.481384,303.561615 416.122253,299.247620 
	C429.938599,299.247620 442.486816,299.247620 455.940033,299.247620 
	C449.253571,303.772522 442.471008,304.680817 435.056274,304.956726 
z"/>
<path fill="#D7E9EE" opacity="1.000000" stroke="none" 
	d="
M351.943970,272.826935 
	C349.704285,297.583282 338.389832,316.935760 319.298279,331.633606 
	C313.030914,336.458588 305.835999,340.250580 298.646729,343.622620 
	C295.726929,344.992096 291.243652,345.095032 288.232422,343.883575 
	C257.548828,331.539276 240.113235,308.390045 234.186981,276.173767 
	C234.007599,275.198608 234.008560,274.181396 234.007584,273.183685 
	C233.985275,250.352951 234.029022,227.521942 233.912018,204.691742 
	C233.890533,200.497452 235.240707,198.414337 239.675354,197.672836 
	C272.965027,192.106644 306.272552,191.557800 339.646576,196.738586 
	C352.087708,198.669891 352.102814,198.687134 352.082916,211.356400 
	C352.050995,231.687744 351.992859,252.019073 351.943970,272.826935 
M342.825134,222.816162 
	C336.772614,212.232147 327.604950,207.223953 315.496613,208.115768 
	C311.564819,208.405365 307.666626,209.604538 303.832977,210.674103 
	C296.925537,212.601257 290.122559,213.048203 283.238312,210.524948 
	C280.597321,209.556961 277.800232,208.953339 275.029846,208.410553 
	C262.769653,206.008514 250.949371,210.563812 244.686996,220.012054 
	C238.299850,229.648544 237.942200,241.845566 244.785553,250.891113 
	C248.235260,255.450912 249.448288,260.110657 249.832870,265.522552 
	C250.292023,271.983856 250.654541,278.576782 252.261246,284.802399 
	C254.656403,294.083130 257.834198,303.194336 261.231750,312.168427 
	C262.650208,315.915039 265.765930,319.197510 270.307617,318.881744 
	C274.931641,318.560242 276.156586,314.337341 277.269196,310.720825 
	C279.076202,304.847076 280.187103,298.748322 282.177551,292.945404 
	C283.718079,288.454193 285.656403,283.927368 288.329834,280.044281 
	C291.109558,276.006836 295.052185,275.968506 297.822418,279.986145 
	C300.491882,283.857605 302.324310,288.428802 303.882324,292.915558 
	C306.275452,299.807251 307.635101,307.083405 310.336090,313.835236 
	C312.882263,320.200012 318.009064,320.955353 322.219360,315.520264 
	C325.500000,311.285309 328.572906,306.247742 329.708649,301.117584 
	C332.682556,287.684113 334.507782,273.998077 336.891479,260.430389 
	C337.246521,258.409485 337.618866,256.022247 338.876984,254.589172 
	C347.212219,245.094620 348.191376,234.755432 342.825134,222.816162 
z"/>
<path fill="#D7E9EE" opacity="1.000000" stroke="none" 
	d="
M643.036865,316.994904 
	C643.750488,315.879181 644.462585,315.141754 645.174683,314.404327 
	C645.984985,315.488007 647.522522,316.660339 647.404175,317.630768 
	C647.281982,318.632812 645.549744,319.438568 644.521912,320.330200 
	C644.026428,319.344574 643.530945,318.358917 643.036865,316.994904 
z"/>
<path fill="#D7E9EE" opacity="1.000000" stroke="none" 
	d="
M407.263489,321.481720 
	C405.505554,322.150635 404.021088,322.555054 402.135712,323.068695 
	C402.135712,319.862762 402.135712,317.298798 402.135712,314.749664 
	C407.834869,314.167999 409.411011,316.118073 407.263489,321.481720 
z"/>
<path fill="#0B799B" opacity="1.000000" stroke="none" 
	d="
M342.967987,223.164764 
	C348.191376,234.755432 347.212219,245.094620 338.876984,254.589172 
	C337.618866,256.022247 337.246521,258.409485 336.891479,260.430389 
	C334.507782,273.998077 332.682556,287.684113 329.708649,301.117584 
	C328.572906,306.247742 325.500000,311.285309 322.219360,315.520264 
	C318.009064,320.955353 312.882263,320.200012 310.336090,313.835236 
	C307.635101,307.083405 306.275452,299.807251 303.882324,292.915558 
	C302.324310,288.428802 300.491882,283.857605 297.822418,279.986145 
	C295.052185,275.968506 291.109558,276.006836 288.329834,280.044281 
	C285.656403,283.927368 283.718079,288.454193 282.177551,292.945404 
	C280.187103,298.748322 279.076202,304.847076 277.269196,310.720825 
	C276.156586,314.337341 274.931641,318.560242 270.307617,318.881744 
	C265.765930,319.197510 262.650208,315.915039 261.231750,312.168427 
	C257.834198,303.194336 254.656403,294.083130 252.261246,284.802399 
	C250.654541,278.576782 250.292023,271.983856 249.832870,265.522552 
	C249.448288,260.110657 248.235260,255.450912 244.785553,250.891113 
	C237.942200,241.845566 238.299850,229.648544 244.686996,220.012054 
	C250.949371,210.563812 262.769653,206.008514 275.029846,208.410553 
	C277.800232,208.953339 280.597321,209.556961 283.238312,210.524948 
	C290.122559,213.048203 296.925537,212.601257 303.832977,210.674103 
	C307.666626,209.604538 311.564819,208.405365 315.496613,208.115768 
	C327.604950,207.223953 336.772614,212.232147 342.967987,223.164764 
M313.044525,213.075775 
	C308.845825,214.112183 304.647095,215.148575 300.205566,216.244919 
	C304.576630,219.880142 308.512085,222.923431 312.113129,226.321167 
	C312.938202,227.099686 312.611938,229.098450 312.815552,230.535629 
	C311.505524,230.208755 309.727661,230.317307 308.956604,229.488815 
	C299.431641,219.254471 286.753235,215.789261 273.798309,213.145767 
	C262.446381,210.829361 252.581207,215.382278 247.345917,224.699020 
	C242.456436,233.400360 244.158005,243.718475 251.645279,252.305786 
	C252.843307,253.679840 253.682541,255.709564 253.899658,257.530121 
	C254.490280,262.482666 254.096405,267.602875 255.107178,272.444885 
	C257.443604,283.637238 260.102203,294.783630 263.241486,305.774048 
	C264.180695,309.062134 267.142609,311.772430 269.177826,314.747437 
	C269.867035,314.579712 270.556213,314.411957 271.245422,314.244232 
	C273.137177,307.601166 274.802185,300.882294 276.989624,294.338074 
	C278.871948,288.706696 280.610474,282.806061 283.739319,277.864563 
	C288.382599,270.531219 296.778809,270.574066 302.027557,277.485779 
	C304.190918,280.334503 305.828827,283.759033 306.970917,287.167877 
	C309.027802,293.307159 310.438477,299.659760 312.306122,305.866974 
	C313.183472,308.782928 314.495117,311.568268 316.237091,316.013031 
	C318.771942,312.506073 320.733490,310.521301 321.842468,308.139587 
	C328.992218,292.783997 331.411102,276.402679 332.165222,259.646637 
	C332.276886,257.165375 332.841003,253.967651 334.457733,252.417831 
	C341.653534,245.519745 343.633148,233.628250 338.845154,224.759033 
	C334.006744,215.796402 325.480103,211.735809 313.044525,213.075775 
z"/>
<path fill="#D8E9EE" opacity="1.000000" stroke="none" 
	d="
M313.488800,213.021332 
	C325.480103,211.735809 334.006744,215.796402 338.845154,224.759033 
	C343.633148,233.628250 341.653534,245.519745 334.457733,252.417831 
	C332.841003,253.967651 332.276886,257.165375 332.165222,259.646637 
	C331.411102,276.402679 328.992218,292.783997 321.842468,308.139587 
	C320.733490,310.521301 318.771942,312.506073 316.237091,316.013031 
	C314.495117,311.568268 313.183472,308.782928 312.306122,305.866974 
	C310.438477,299.659760 309.027802,293.307159 306.970917,287.167877 
	C305.828827,283.759033 304.190918,280.334503 302.027557,277.485779 
	C296.778809,270.574066 288.382599,270.531219 283.739319,277.864563 
	C280.610474,282.806061 278.871948,288.706696 276.989624,294.338074 
	C274.802185,300.882294 273.137177,307.601166 271.245422,314.244232 
	C270.556213,314.411957 269.867035,314.579712 269.177826,314.747437 
	C267.142609,311.772430 264.180695,309.062134 263.241486,305.774048 
	C260.102203,294.783630 257.443604,283.637238 255.107178,272.444885 
	C254.096405,267.602875 254.490280,262.482666 253.899658,257.530121 
	C253.682541,255.709564 252.843307,253.679840 251.645279,252.305786 
	C244.158005,243.718475 242.456436,233.400360 247.345917,224.699020 
	C252.581207,215.382278 262.446381,210.829361 273.798309,213.145767 
	C286.753235,215.789261 299.431641,219.254471 308.956604,229.488815 
	C309.727661,230.317307 311.505524,230.208755 312.815552,230.535629 
	C312.611938,229.098450 312.938202,227.099686 312.113129,226.321167 
	C308.512085,222.923431 304.576630,219.880142 300.205566,216.244919 
	C304.647095,215.148575 308.845825,214.112183 313.488800,213.021332 
z"/>
</svg>