<svg width="18" height="22" viewBox="0 0 18 22" fill="none" xmlns="http://www.w3.org/2000/svg">
    <path d="M8.99999 21C10.1 21 11 20.1 11 19V18L6.99998 18.0005L6.99999 19C6.99999 19.5304 7.2107 20.0391 7.58578 20.4142C7.96085 20.7893 8.46956 21 8.99999 21ZM15 15V10C15 6.93 13.36 4.36 10.5 3.68V3C10.5 2.17 9.82999 1.5 8.99999 1.5C8.16999 1.5 7.49999 2.17 7.49999 3V3.68C4.62999 4.36 2.99999 6.92 2.99999 10V15L1.70999 16.29C1.07999 16.92 1.51999 18 2.40999 18H15.58C16.47 18 16.92 16.92 16.29 16.29L15 15Z" stroke="white" stroke-width="1.5"/>
</svg>
