<svg width="163" height="71" viewBox="0 0 163 71" fill="none" xmlns="http://www.w3.org/2000/svg">
    <path d="M76.5385 46.0031C74.7725 46.0031 73.1601 45.5488 71.7013 44.6403C70.2553 43.7317 69.0972 42.5096 68.227 40.974C67.3696 39.4384 66.9409 37.7428 66.9409 35.8873C66.9409 34.4925 67.1905 33.1872 67.6895 31.9715C68.1886 30.743 68.8732 29.6681 69.7434 28.7467C70.6264 27.8126 71.6501 27.0831 72.8146 26.5585C73.9791 26.0338 75.2204 25.7715 76.5385 25.7715C78.0613 25.7715 79.4497 26.0978 80.7038 26.7504C81.9707 27.4031 83.0392 28.2924 83.9094 29.4186C84.7924 30.5447 85.4194 31.8179 85.7905 33.2384C86.1744 34.6588 86.2384 36.1368 85.9825 37.6725H72.6611C72.8274 38.2355 73.0834 38.7474 73.4289 39.2081C73.7872 39.6559 74.2223 40.0143 74.7341 40.283C75.2588 40.5517 75.8602 40.6925 76.5385 40.7053C77.2039 40.7181 77.8181 40.5645 78.3812 40.2446C78.9443 39.9247 79.4241 39.496 79.8208 38.9585L85.2339 40.2062C84.4533 41.9082 83.2888 43.303 81.7403 44.3907C80.1919 45.4657 78.458 46.0031 76.5385 46.0031ZM72.4691 33.7566H80.627C80.4607 33.1168 80.1791 32.541 79.7824 32.0291C79.3857 31.5172 78.9059 31.1141 78.3428 30.8198C77.7926 30.5255 77.1911 30.3783 76.5385 30.3783C75.8986 30.3783 75.2972 30.5255 74.7341 30.8198C74.1839 31.1141 73.7104 31.5172 73.3137 32.0291C72.9298 32.5282 72.6483 33.104 72.4691 33.7566Z" fill="#1D1E25"/>
    <path d="M100.563 39.4384L105.324 42.0105C104.441 43.2134 103.334 44.1796 102.003 44.909C100.672 45.6384 99.2196 46.0031 97.6456 46.0031C95.8796 46.0031 94.2673 45.5488 92.8084 44.6403C91.3624 43.7317 90.2043 42.516 89.3341 40.9932C88.4767 39.4576 88.048 37.762 88.048 35.9065C88.048 34.4989 88.2976 33.1872 88.7966 31.9715C89.2957 30.743 89.9803 29.6681 90.8505 28.7467C91.7335 27.8126 92.7572 27.0831 93.9217 26.5585C95.0862 26.0338 96.3275 25.7715 97.6456 25.7715C99.2196 25.7715 100.672 26.1362 102.003 26.8656C103.334 27.595 104.441 28.574 105.324 29.8025L100.563 32.3746C100.167 31.9523 99.7123 31.6324 99.2004 31.4148C98.7013 31.1845 98.1831 31.0693 97.6456 31.0693C96.8266 31.0693 96.0908 31.2933 95.4382 31.7412C94.7983 32.189 94.2864 32.7841 93.9025 33.5263C93.5314 34.2557 93.3459 35.0491 93.3459 35.9065C93.3459 36.7511 93.5378 37.5381 93.9217 38.2675C94.3056 38.9969 94.8175 39.5856 95.4573 40.0334C96.11 40.4813 96.8394 40.7053 97.6456 40.7053C98.1959 40.7053 98.7205 40.5901 99.2196 40.3598C99.7187 40.1294 100.167 39.8223 100.563 39.4384Z" fill="#1D1E25"/>
    <path d="M122.147 26.3089H127.444V45.5041H122.127L121.878 43.5078C121.379 44.25 120.739 44.8514 119.958 45.3121C119.178 45.7728 118.263 46.0031 117.214 46.0031C115.78 46.0031 114.443 45.7344 113.202 45.1969C111.96 44.6595 110.866 43.9173 109.919 42.9703C108.972 42.0233 108.23 40.9292 107.693 39.6879C107.168 38.4339 106.906 37.0902 106.906 35.657C106.906 34.2877 107.155 33.008 107.654 31.8179C108.153 30.6278 108.857 29.5785 109.766 28.6699C110.674 27.7614 111.717 27.0512 112.895 26.5393C114.085 26.0274 115.364 25.7715 116.734 25.7715C117.911 25.7715 118.967 26.021 119.901 26.5201C120.848 27.0192 121.673 27.6526 122.377 28.4204L122.147 26.3089ZM117.079 40.9164C117.949 40.9164 118.736 40.6925 119.44 40.2446C120.144 39.7967 120.701 39.1953 121.11 38.4403C121.52 37.6724 121.724 36.8279 121.724 35.9065C121.724 34.9723 121.52 34.1278 121.11 33.3727C120.701 32.6177 120.144 32.0163 119.44 31.5684C118.736 31.1205 117.949 30.8966 117.079 30.8966C116.196 30.8966 115.396 31.1205 114.68 31.5684C113.963 32.0163 113.394 32.6241 112.971 33.3919C112.549 34.1469 112.338 34.9851 112.338 35.9065C112.338 36.8279 112.549 37.6724 112.971 38.4403C113.406 39.1953 113.982 39.7967 114.699 40.2446C115.416 40.6925 116.209 40.9164 117.079 40.9164Z" fill="#1D1E25"/>
    <path d="M131.321 45.5041L131.302 26.3089H136.599L136.619 27.7294C137.258 27.1151 138.007 26.6353 138.864 26.2898C139.735 25.9442 140.65 25.7715 141.609 25.7715C142.313 25.7715 143.017 25.8739 143.721 26.0786L141.628 31.434C141.168 31.2421 140.701 31.1461 140.227 31.1461C139.562 31.1461 138.954 31.3061 138.404 31.626C137.853 31.9459 137.418 32.381 137.098 32.9313C136.779 33.4687 136.619 34.0766 136.619 34.7548V45.5041H131.321Z" fill="#1D1E25"/>
    <path d="M153.356 46.0031C151.59 46.0031 149.978 45.5488 148.519 44.6403C147.073 43.7317 145.915 42.5096 145.045 40.974C144.188 39.4384 143.759 37.7428 143.759 35.8873C143.759 34.4925 144.008 33.1872 144.507 31.9715C145.007 30.743 145.691 29.6681 146.561 28.7467C147.444 27.8126 148.468 27.0831 149.633 26.5585C150.797 26.0338 152.038 25.7715 153.356 25.7715C154.879 25.7715 156.268 26.0978 157.522 26.7504C158.789 27.4031 159.857 28.2924 160.727 29.4186C161.61 30.5447 162.237 31.8179 162.608 33.2384C162.992 34.6588 163.056 36.1368 162.8 37.6725H149.479C149.645 38.2355 149.901 38.7474 150.247 39.2081C150.605 39.6559 151.04 40.0143 151.552 40.283C152.077 40.5517 152.678 40.6925 153.356 40.7053C154.022 40.7181 154.636 40.5645 155.199 40.2446C155.762 39.9247 156.242 39.496 156.639 38.9585L162.052 40.2062C161.271 41.9082 160.107 43.303 158.558 44.3907C157.01 45.4657 155.276 46.0031 153.356 46.0031ZM149.287 33.7566H157.445C157.279 33.1168 156.997 32.541 156.6 32.0291C156.204 31.5172 155.724 31.1141 155.161 30.8198C154.61 30.5255 154.009 30.3783 153.356 30.3783C152.717 30.3783 152.115 30.5255 151.552 30.8198C151.002 31.1141 150.528 31.5172 150.132 32.0291C149.748 32.5282 149.466 33.104 149.287 33.7566Z" fill="#1D1E25"/>
    <path d="M50.5852 38.0952C53.068 38.1065 55.0748 40.1366 55.0748 42.637C55.0748 45.099 53.0787 47.2396 50.6348 47.3041L46.6998 47.3041C43.315 43.8954 45.7814 38.0952 50.5852 38.0952Z" fill="url(#paint0_linear_333_1810)"/>
    <path d="M37.5554 51.1251C37.5668 53.6079 39.6132 55.6147 42.1338 55.6147C44.6156 55.6147 46.7735 53.6187 46.8385 51.1747L46.8385 48.1382C46.8385 48.1382 46.4345 42.9464 47.4853 40.888C48.3602 39.1741 50.5826 38.0954 50.5826 38.0954L45.5554 38.0954C41.1371 38.0954 37.5554 41.6771 37.5554 46.0954L37.5554 51.1251Z" fill="#59C3FF"/>
    <path d="M19.809 33.1538C17.3262 33.1426 15.3193 31.1124 15.3193 28.6121C15.3193 26.15 17.3154 24.0094 19.7593 23.9449L23.6944 23.9449C27.0792 27.3536 24.6128 33.1538 19.809 33.1538Z" fill="url(#paint1_linear_333_1810)"/>
    <path d="M32.8387 20.3485C32.8276 17.8657 30.8164 15.8589 28.3393 15.8589C25.9003 15.8589 23.7796 17.855 23.7157 20.2989V24.0093C23.7157 24.0093 24.1127 28.3026 23.0801 30.361C22.2203 32.0749 20.0361 33.1536 20.0361 33.1536L24.8387 33.1536C29.257 33.1536 32.8387 29.5719 32.8387 25.1536V20.3485Z" fill="#59C3FF"/>
    <path d="M32.7817 51.207C32.7706 53.6745 30.7672 55.6689 28.2997 55.6689C25.87 55.6689 23.7575 53.6852 23.6939 51.2564L23.6939 47.3512C27.0475 43.9976 32.7817 46.4643 32.7817 51.207Z" fill="url(#paint2_linear_333_1810)"/>
    <path d="M19.8089 38.0952C17.326 38.1066 15.3192 40.153 15.3192 42.6736C15.3192 45.1554 17.3153 47.3133 19.7592 47.3783L23.6942 47.3783C23.6942 47.3783 27.9876 46.9743 30.046 48.0251C31.7598 48.9 32.8386 51.1224 32.8386 51.1224L32.8386 46.0952C32.8386 41.6769 29.2569 38.0952 24.8386 38.0952L19.8089 38.0952Z" fill="#257CFF"/>
    <path d="M37.6538 20.2559C37.6649 17.7884 39.6683 15.7939 42.1359 15.7939C44.5655 15.7939 46.678 17.7777 46.7417 20.2065L46.7417 24.1117C43.388 27.4653 37.6538 24.9986 37.6538 20.2559Z" fill="url(#paint3_linear_333_1810)"/>
    <path d="M50.6267 33.3672C53.1095 33.3558 55.1163 31.3094 55.1163 28.7888C55.1163 26.307 53.1203 24.1491 50.6763 24.0841L46.7413 24.0841C46.7413 24.0841 42.448 24.4881 40.3896 23.4373C38.6757 22.5624 37.597 20.34 37.597 20.34L37.597 25.3672C37.597 29.7855 41.1787 33.3672 45.597 33.3672L50.6267 33.3672Z" fill="#257CFF"/>
    <defs>
        <linearGradient id="paint0_linear_333_1810" x1="56.038" y1="41.2488" x2="38.6099" y2="47.2047" gradientUnits="userSpaceOnUse">
            <stop stop-color="#59C3FF"/>
            <stop offset="1" stop-color="#DCF2FF"/>
        </linearGradient>
        <linearGradient id="paint1_linear_333_1810" x1="14.3562" y1="30.0002" x2="31.7843" y2="24.0443" gradientUnits="userSpaceOnUse">
            <stop stop-color="#59C3FF"/>
            <stop offset="1" stop-color="#DCF2FF"/>
        </linearGradient>
        <linearGradient id="paint2_linear_333_1810" x1="29.6696" y1="56.6258" x2="23.7209" y2="39.3354" gradientUnits="userSpaceOnUse">
            <stop stop-color="#257CFF"/>
            <stop offset="1" stop-color="#CFE2FF"/>
        </linearGradient>
        <linearGradient id="paint3_linear_333_1810" x1="40.766" y1="14.8371" x2="46.7147" y2="32.1275" gradientUnits="userSpaceOnUse">
            <stop stop-color="#257CFF"/>
            <stop offset="1" stop-color="#CFE2FF"/>
        </linearGradient>
    </defs>
</svg>
