<svg width="44" height="40" viewBox="0 0 44 40" fill="none" xmlns="http://www.w3.org/2000/svg">
    <path fill-rule="evenodd" clip-rule="evenodd" d="M4.6011 24.0013C7.87303 28.9079 13.4116 34.3238 22.0007 40.001C30.5899 34.3238 36.1285 28.9079 39.4004 24.0013H32.6672C32.4009 24.0012 32.1408 23.9215 31.9202 23.7722C31.6997 23.623 31.5289 23.4111 31.4299 23.164L27.5446 13.4522L23.2834 28.3665C23.2072 28.634 23.0493 28.871 22.8317 29.0442C22.6142 29.2175 22.3479 29.3184 22.0701 29.3328C21.7924 29.3472 21.5171 29.2744 21.2828 29.1246C21.0485 28.9747 20.8669 28.7554 20.7634 28.4972L16.3715 17.5161L12.4436 23.4093C12.3217 23.5916 12.1566 23.741 11.9631 23.8443C11.7696 23.9475 11.5536 24.0015 11.3343 24.0013H4.6011ZM3.01179 21.3347C-5.80136 4.48169 12.4276 -5.33144 21.5314 3.04972C21.6914 3.19639 21.8487 3.34838 22.0007 3.50571C22.1512 3.34853 22.3078 3.1973 22.4701 3.05239C31.5739 -5.33144 49.8028 4.48169 40.987 21.3347H33.5658L28.5686 8.83894C28.4652 8.58077 28.2836 8.36142 28.0493 8.21159C27.815 8.06175 27.5397 7.98894 27.2619 8.00334C26.9842 8.01774 26.7179 8.11864 26.5003 8.2919C26.2828 8.46517 26.1249 8.70212 26.0487 8.9696L21.7901 23.884L17.9048 14.1722C17.8143 13.9469 17.6641 13.7506 17.4702 13.6044C17.2763 13.4583 17.0462 13.3678 16.8047 13.3429C16.5632 13.3179 16.3195 13.3593 16.0998 13.4627C15.8802 13.5661 15.6929 13.7275 15.5582 13.9295L10.6196 21.3347H3.01446H3.01179Z" fill="white"/>
</svg>
