<svg width="96" height="97" viewBox="0 0 96 97" fill="none" xmlns="http://www.w3.org/2000/svg">
    <path d="M68.5611 51.6108C71.9293 51.6261 74.6517 54.3801 74.6517 57.7721C74.6517 61.1121 71.9439 64.0161 68.6284 64.1036L63.2902 64.1036C58.6984 59.4793 62.0443 51.6108 68.5611 51.6108Z" fill="url(#paint0_linear_333_1797)"/>
    <path d="M50.8851 69.2868C50.9005 72.655 53.6767 75.3774 57.096 75.3774C60.4629 75.3774 63.3903 72.6696 63.4785 69.3542L63.4785 65.2347C63.4785 65.2347 62.9304 58.1916 64.3559 55.3992C65.5427 53.0742 68.5577 51.6108 68.5577 51.6108L58.8851 51.6108C54.4668 51.6108 50.8851 55.1925 50.8851 59.6108L50.8851 69.2868Z" fill="#59C3FF"/>
    <path d="M26.8103 44.9072C23.4421 44.892 20.7197 42.1379 20.7197 38.7459C20.7197 35.406 23.4275 32.502 26.743 32.4145L32.0812 32.4145C36.673 37.0388 33.3271 44.9072 26.8103 44.9072Z" fill="url(#paint1_linear_333_1797)"/>
    <path d="M44.4863 27.536C44.4712 24.1678 41.7428 21.4453 38.3825 21.4453C35.0736 21.4453 32.1967 24.1532 32.11 27.4686V32.5021C32.11 32.5021 32.6486 38.3264 31.2478 41.1188C30.0814 43.4439 27.1184 44.9073 27.1184 44.9073L36.4863 44.9073C40.9046 44.9073 44.4863 41.3256 44.4863 36.9073V27.536Z" fill="#59C3FF"/>
    <path d="M44.409 69.3982C44.3939 72.7455 41.6761 75.4512 38.3287 75.4512C35.0326 75.4512 32.1668 72.76 32.0805 69.4651L32.0805 64.1674C36.63 59.6179 44.409 62.9641 44.409 69.3982Z" fill="url(#paint2_linear_333_1797)"/>
    <path d="M26.8103 51.6108C23.4421 51.6262 20.7197 54.4025 20.7197 57.8218C20.7197 61.1887 23.4275 64.1161 26.743 64.2043L32.0812 64.2043C32.0812 64.2043 37.9055 63.6562 40.6979 65.0816C43.0229 66.2685 44.4863 69.2835 44.4863 69.2835L44.4863 59.6108C44.4863 55.1926 40.9046 51.6108 36.4863 51.6108L26.8103 51.6108Z" fill="#257CFF"/>
    <path d="M51.0186 27.4099C51.0337 24.0626 53.7515 21.3569 57.0989 21.3569C60.395 21.3569 63.2608 24.0481 63.3471 27.343L63.3471 32.6407C58.7976 37.1902 51.0186 33.844 51.0186 27.4099Z" fill="url(#paint3_linear_333_1797)"/>
    <path d="M68.6173 45.1968C71.9855 45.1814 74.7079 42.4052 74.7079 38.9858C74.7079 35.6189 72.0001 32.6915 68.6847 32.6034L63.3464 32.6034C63.3464 32.6034 57.5222 33.1514 54.7297 31.726C52.4047 30.5391 50.9413 27.5241 50.9413 27.5241L50.9413 37.1968C50.9413 41.6151 54.523 45.1968 58.9413 45.1968L68.6173 45.1968Z" fill="#257CFF"/>
    <defs>
        <linearGradient id="paint0_linear_333_1797" x1="75.9583" y1="55.889" x2="52.3155" y2="63.9688" gradientUnits="userSpaceOnUse">
            <stop stop-color="#59C3FF"/>
            <stop offset="1" stop-color="#DCF2FF"/>
        </linearGradient>
        <linearGradient id="paint1_linear_333_1797" x1="19.4131" y1="40.6291" x2="43.0559" y2="32.5493" gradientUnits="userSpaceOnUse">
            <stop stop-color="#59C3FF"/>
            <stop offset="1" stop-color="#DCF2FF"/>
        </linearGradient>
        <linearGradient id="paint2_linear_333_1797" x1="40.1871" y1="76.7493" x2="32.1171" y2="53.2932" gradientUnits="userSpaceOnUse">
            <stop stop-color="#257CFF"/>
            <stop offset="1" stop-color="#CFE2FF"/>
        </linearGradient>
        <linearGradient id="paint3_linear_333_1797" x1="55.2405" y1="20.0589" x2="63.3105" y2="43.5149" gradientUnits="userSpaceOnUse">
            <stop stop-color="#257CFF"/>
            <stop offset="1" stop-color="#CFE2FF"/>
        </linearGradient>
    </defs>
</svg>
