<svg width="15" height="18" viewBox="0 0 15 18" fill="none" xmlns="http://www.w3.org/2000/svg">
    <path d="M5.81396 9.81177H4.94414C4.2222 9.81177 3.63942 9.22899 3.63942 8.50704C3.63942 7.7851 4.2222 7.20232 4.94414 7.20232H5.81396V6.3325C5.81396 5.61056 6.39673 5.02778 7.11868 5.02778C7.84063 5.02778 8.42341 5.61056 8.42341 6.3325V7.20232H9.29322C10.0152 7.20232 10.5979 7.7851 10.5979 8.50704C10.5979 9.22899 10.0152 9.81177 9.29322 9.81177H8.42341V10.6816C8.42341 11.4035 7.84063 11.9863 7.11868 11.9863C6.39673 11.9863 5.81396 11.4035 5.81396 10.6816V9.81177ZM6.50981 0.469945L1.29092 2.42703C0.612461 2.68798 0.160156 3.33164 0.160156 4.06228V8.15042C0.160156 12.543 3.12623 16.6398 7.11868 17.6401C11.1111 16.6398 14.0772 12.543 14.0772 8.15042V4.06228C14.0766 3.70832 13.968 3.36297 13.766 3.07233C13.5639 2.7817 13.278 2.55962 12.9464 2.43573L7.72755 0.478643C7.33614 0.322076 6.90123 0.322076 6.50981 0.469945Z" fill="white"/>
</svg>
