<svg width="18" height="21" viewBox="0 0 18 21" fill="none" xmlns="http://www.w3.org/2000/svg">
    <path d="M6.25 2.75002V0.916687H11.75V2.75002H6.25ZM8.08333 12.8334H9.91667V7.33335H8.08333V12.8334ZM9 20.1667C7.86944 20.1667 6.80367 19.9491 5.80267 19.514C4.80228 19.0783 3.92778 18.4861 3.17917 17.7375C2.43056 16.9889 1.83839 16.1144 1.40267 15.114C0.967555 14.113 0.75 13.0472 0.75 11.9167C0.75 10.7861 0.967555 9.72035 1.40267 8.71935C1.83839 7.71897 2.43056 6.84446 3.17917 6.09585C3.92778 5.34724 4.80228 4.75538 5.80267 4.32027C6.80367 3.88455 7.86944 3.66669 9 3.66669C9.94722 3.66669 10.8563 3.81946 11.7271 4.12502C12.5979 4.43058 13.4153 4.87363 14.1792 5.45419L15.4625 4.17085L16.7458 5.45419L15.4625 6.73752C16.0431 7.50141 16.4861 8.31877 16.7917 9.1896C17.0972 10.0604 17.25 10.9695 17.25 11.9167C17.25 13.0472 17.0324 14.113 16.5973 15.114C16.1616 16.1144 15.5694 16.9889 14.8208 17.7375C14.0722 18.4861 13.1977 19.0783 12.1973 19.514C11.1963 19.9491 10.1306 20.1667 9 20.1667ZM9 18.3334C10.7722 18.3334 12.2847 17.707 13.5375 16.4542C14.7903 15.2014 15.4167 13.6889 15.4167 11.9167C15.4167 10.1445 14.7903 8.63197 13.5375 7.37919C12.2847 6.12641 10.7722 5.50002 9 5.50002C7.22778 5.50002 5.71528 6.12641 4.4625 7.37919C3.20972 8.63197 2.58333 10.1445 2.58333 11.9167C2.58333 13.6889 3.20972 15.2014 4.4625 16.4542C5.71528 17.707 7.22778 18.3334 9 18.3334Z" fill="#F2F2F2"/>
</svg>
